<svg width="26" height="26" viewBox="0 0 26 26" fill="none" xmlns="http://www.w3.org/2000/svg">
<path d="M21.6408 3.63197C19.3304 1.32154 16.2592 0.0493164 12.9916 0.0493164C12.9914 0.0493164 12.9907 0.0493164 12.9905 0.0493164C11.3743 0.0495088 9.79942 0.362416 8.30975 0.979571C6.81988 1.59672 5.48511 2.48907 4.34221 3.63197C2.03197 5.94221 0.759755 9.01393 0.759755 12.2812C0.759755 14.2296 1.22989 16.166 2.12069 17.8912L0.0646627 23.7648C-0.0802445 24.1792 0.0223259 24.6295 0.332924 24.9399C0.550188 25.1573 0.836154 25.2728 1.1302 25.2728C1.25625 25.2728 1.38365 25.2516 1.50796 25.2081L7.38161 23.1523C9.10683 24.0431 11.0432 24.5132 12.9916 24.5132C16.2589 24.5132 19.3304 23.2408 21.6408 20.9306C23.9511 18.6203 25.2235 15.5486 25.2235 12.2814C25.2235 9.01393 23.9513 5.94221 21.6408 3.63197ZM20.5947 19.8845C18.5639 21.9155 15.8636 23.0338 12.9916 23.0338C11.2346 23.0338 9.48921 22.5992 7.94392 21.7767C7.66373 21.6278 7.33254 21.6022 7.03522 21.7063L1.69886 23.5739L3.56668 18.2376C3.67079 17.9399 3.64501 17.6087 3.49606 17.3287C2.67376 15.7838 2.23904 14.0383 2.23904 12.2812C2.23904 9.4092 3.3575 6.70889 5.38832 4.67807C7.41894 2.64745 10.1189 1.52899 12.9907 1.5286H12.9916C15.8638 1.5286 18.5639 2.64706 20.5947 4.67807C22.6257 6.70889 23.7442 9.40901 23.7442 12.2812C23.7442 15.1533 22.6257 17.8537 20.5947 19.8845Z" fill="white"/>
<path d="M17.5374 13.3738C16.9748 12.8112 16.0591 12.8112 15.4964 13.3738L14.881 13.9893C13.3528 13.1566 12.1162 11.92 11.2833 10.3918L11.8988 9.77638C12.4617 9.21368 12.4617 8.29805 11.8988 7.73536L10.2403 6.07691C9.67763 5.51422 8.762 5.51422 8.1993 6.07691L6.87262 7.40359C6.11268 8.16354 6.07477 9.47001 6.76582 11.0825C7.36585 12.4825 8.46391 14.0212 9.85775 15.4151C11.2516 16.8089 12.7903 17.907 14.1903 18.507C14.9564 18.8353 15.6533 18.9991 16.2554 18.9991C16.9207 18.9991 17.4703 18.7991 17.8692 18.4002L19.1959 17.0733V17.0735C19.4686 16.8008 19.6187 16.4385 19.6187 16.053C19.6187 15.6673 19.4686 15.305 19.1959 15.0325L17.5374 13.3738ZM16.8231 17.3541C16.6062 17.571 15.9392 17.647 14.7732 17.1474C13.542 16.6197 12.1678 15.6329 10.9039 14.369C9.63991 13.105 8.65327 11.731 8.1256 10.4998C7.62583 9.33376 7.70185 8.66658 7.91872 8.4497L9.22 7.14842L10.8273 8.75587L10.0569 9.5264C9.70861 9.87471 9.62451 10.403 9.84794 10.841C10.8607 12.8269 12.4459 14.4121 14.4319 15.4249C14.87 15.6483 15.3983 15.5644 15.7466 15.2159L16.5169 14.4455L18.1244 16.053L16.8231 17.3541Z" fill="white"/>
</svg>
