<svg width="26" height="26" viewBox="0 0 26 26" fill="none" xmlns="http://www.w3.org/2000/svg">
<path d="M18.3957 0.0493164H6.82775C3.06287 0.0493164 0 3.11218 0 6.87707V18.4452C0 22.2099 3.06287 25.2727 6.82775 25.2727H18.3959C22.1606 25.2727 25.2234 22.2099 25.2234 18.4452V6.87707C25.2234 3.11218 22.1606 0.0493164 18.3957 0.0493164V0.0493164ZM23.7447 18.4452C23.7447 21.3945 21.3452 23.794 18.3957 23.794H6.82775C3.87823 23.794 1.4787 21.3945 1.4787 18.4452V6.87707C1.4787 3.92755 3.87823 1.52802 6.82775 1.52802H18.3959C21.3452 1.52802 23.7447 3.92755 23.7447 6.87707V18.4452Z" fill="white"/>
<path d="M12.6117 5.7642C8.80869 5.7642 5.71484 8.85805 5.71484 12.661C5.71484 16.464 8.80869 19.5579 12.6117 19.5579C16.4147 19.5579 19.5085 16.464 19.5085 12.661C19.5085 8.85805 16.4147 5.7642 12.6117 5.7642ZM12.6117 18.0792C9.62425 18.0792 7.19355 15.6487 7.19355 12.661C7.19355 9.67361 9.62425 7.2429 12.6117 7.2429C15.5993 7.2429 18.0298 9.67361 18.0298 12.661C18.0298 15.6487 15.5993 18.0792 12.6117 18.0792Z" fill="white"/>
<path d="M19.6735 3.31483C18.5496 3.31483 17.6356 4.22911 17.6356 5.35276C17.6356 6.47661 18.5496 7.39089 19.6735 7.39089C20.7973 7.39089 21.7116 6.47661 21.7116 5.35276C21.7116 4.22891 20.7973 3.31483 19.6735 3.31483ZM19.6735 5.91199C19.3652 5.91199 19.1143 5.66105 19.1143 5.35276C19.1143 5.04428 19.3652 4.79353 19.6735 4.79353C19.982 4.79353 20.2329 5.04428 20.2329 5.35276C20.2329 5.66105 19.982 5.91199 19.6735 5.91199Z" fill="white"/>
</svg>
